# xmcd
#
# Track frame offsets:
#	150
#	19080
#	40691
#	71615
#	96050
#	119549
#	145118
#	166159
#	197137
#	217504
#	241690
#	266560
#	289141
#	313741
#	335867
#
# Disc length: 4705
#
# Revision: 1
# Processed by: cddbd v1.5.1PL0 Copyright (c) Steve Scherf et al.
# Submitted via: Axialis_AX_CDPlayer 2.6
# Normalized: r0:DSETVAR1,TDELIM( - )
#
DISCID=d5125f0f
DTITLE=Various Artist - All Times Blues
DYEAR=1900
DGENRE=
TTITLE0=Gary Moore - Still Got The Blues
TTITLE1=Santana Ft. Everlast - Put Your Lights On
TTITLE2=Chris Rea - On The Beach
TTITLE3=Eric Clapton - My Father's Eyes
TTITLE4=Tony Joe White - Good In Blues
TTITLE5=Toto - Baby Hi's Your Man
TTITLE6=Dana Gilespie - Where Blues Begins
TTITLE7=George Michael - Jesus To A Child
TTITLE8=Blues Company - Silent Night
TTITLE9=Stan Webb's and Chiken Shack - Don't You Worry About A Thing
TTITLE10=Jan Akkerman - Shame On You
TTITLE11=John Campbell - Wild Streak
TTITLE12=J.J. Cale - Cloudy Day
TTITLE13=Lucky Peterson - Who Been Talking
TTITLE14=John Mayall and The BluesBreakears - Dead City
EXTD=
EXTT0=
EXTT1=
EXTT2=
EXTT3=
EXTT4=
EXTT5=
EXTT6=
EXTT7=
EXTT8=
EXTT9=
EXTT10=
EXTT11=
EXTT12=
EXTT13=
EXTT14=
PLAYORDER=
